# xmcd CD database file
#
# Track frame offsets:
#	150
#	38984
#	64186
#	107106
#	129127
#	145920
#	159906
#	185157
#	214481
#	273933
#	313717
#
# Disc length: 4489 seconds
#
# Revision: 0
# Processed by: cddbd v1.5.2PL0 Copyright (c) Steve Scherf et al.
# Submitted via: CDex 1.70beta2
#
DISCID=a311870b
DTITLE=Caratini Jazz Ensemble - Latinidad
DYEAR=2009
DGENRE=Jazz
TTITLE0=Tierras
TTITLE1=Alaro DeYemaya
TTITLE2=Sosiego
TTITLE3=Sueño feliz
TTITLE4=Santa Maria
TTITLE5=Niña
TTITLE6=Pinta
TTITLE7=Tin tin deo
TTITLE8=Los senderos que se bifurcan
TTITLE9=Manteca
TTITLE10=Petite fleur
EXTD=YEAR: 2009
EXTT0=
EXTT1=
EXTT2=
EXTT3=
EXTT4=
EXTT5=
EXTT6=
EXTT7=
EXTT8=
EXTT9=
EXTT10=
PLAYORDER=
